<?xml version="1.0" encoding="UTF-8"?>
<svg id="_图层_2" data-name="图层 2" xmlns="http://www.w3.org/2000/svg" viewBox="0 0 630.06 665.74">
  <defs>
    <style>
      .cls-1 {
        fill: #fa541c;
      }
    </style>
  </defs>
  <g id="_图层_1-2" data-name="图层 1">
    <g>
      <path class="cls-1" d="m17.62,502.52l-.2-.62c-.41-.93-.75-1.88-1.11-2.86l-.55-1.46c-.26-.8-.59-1.59-.86-2.42C-15.62,409.38.49,310.03,65.52,237.43c57.28-63.93,139.33-92.44,218.61-84.04l-46.8,52.24c-49.25,4.74-96.93,27.22-132.53,66.98-44.21,49.37-59.96,114.27-48.41,174.68L341.1,129.48l39.28,35.18L39.29,545.5c-8.64-13.71-15.87-28.13-21.66-42.98h-.01Z"/>
      <path class="cls-1" d="m554.46,222.42c-27.64-24.75-70.1-22.41-94.84,5.16-18.53,20.7-21.88,49.65-10.85,73.27l-303.84,339.3c17.34,8.39,35.42,14.73,53.79,18.95,88.31,20.48,184.79-6.56,249.5-78.85,57.27-63.96,76.6-148.68,59.6-226.55l-46.82,52.28c.67,49.49-16.46,99.33-52.03,139.08-44.24,49.38-107.03,72.16-168.31,67.27l247.39-276.3c24.75,8.4,53.12,1.84,71.66-18.83,24.69-27.62,22.43-70.04-5.22-94.82h-.03v.04s0,0,0,0Zm-23.45,69.21c-10.56,11.79-28.73,12.78-40.52,2.22-11.87-10.6-12.86-28.77-2.24-40.58,10.54-11.85,28.73-12.78,40.52-2.22,11.85,10.54,12.84,28.71,2.24,40.58Z"/>
      <path class="cls-1" d="m434.1,65.18c-27.64-24.75-70.11-22.41-94.89,5.24-18.53,20.7-21.88,49.65-10.85,73.27,3.78,7.98,9.07,15.32,16.08,21.55,6.97,6.24,14.88,10.81,23.23,13.62,24.73,8.34,53.12,1.84,71.61-18.78,24.75-27.64,22.4-70.1-5.18-94.9h0Zm-23.46,69.21c-10.53,11.85-28.71,12.84-40.58,2.24-11.78-10.56-12.77-28.73-2.23-40.58,10.62-11.81,28.79-12.8,40.57-2.24,11.87,10.6,12.86,28.77,2.24,40.58h0Z"/>
      <path class="cls-1" d="m607.7,17.1l-.02.04c-27.64-24.75-70.04-22.43-94.82,5.22-18.55,20.64-21.9,49.59-10.87,73.21L66.75,581.61c5.89,6.46,12.13,12.67,18.74,18.62,6.61,5.96,13.52,11.47,20.57,16.55l435.29-485.98c24.66,8.35,53.06,1.85,71.57-18.88,24.75-27.64,22.43-70.04-5.22-94.82h0Zm-23.41,69.23c-10.56,11.79-28.73,12.78-40.58,2.24-11.78-10.56-12.78-28.73-2.24-40.58,10.56-11.78,28.73-12.77,40.58-2.24,11.81,10.62,12.8,28.8,2.24,40.58Z"/>
    </g>
  </g>
</svg>