<?xml version="1.0" encoding="UTF-8"?>
<svg id="_图层_2" data-name="图层 2" xmlns="http://www.w3.org/2000/svg" xmlns:xlink="http://www.w3.org/1999/xlink" viewBox="0 0 300 40">
  <defs>
    <style>
      .cls-1 {
        fill: #fff;
      }

      .cls-2 {
        clip-path: url(#clippath-2);
        clip-rule: evenodd;
      }

      .cls-2, .cls-3, .cls-4 {
        fill: none;
      }

      .cls-5 {
        clip-path: url(#clippath-1);
      }

      .cls-6 {
        fill: #2584dd;
      }

      .cls-7 {
        clip-path: url(#clippath-3);
      }

      .cls-4 {
        clip-path: url(#clippath);
      }
    </style>
    <clipPath id="clippath">
      <rect class="cls-3" width="300" height="40"/>
    </clipPath>
    <clipPath id="clippath-1">
      <path class="cls-4" d="m4,0h292c2.21,0,4,1.79,4,4v32c0,2.21-1.79,4-4,4H4c-2.21,0-4-1.79-4-4V4C0,1.79,1.79,0,4,0h0Z"/>
    </clipPath>
    <clipPath id="clippath-2">
      <rect class="cls-3" width="300" height="40"/>
    </clipPath>
    <clipPath id="clippath-3">
      <path class="cls-2" d="m101.04,27.28c.24.06.48.18.67.37.54.54.54,1.41,0,1.95-.54.54-1.42.54-1.96,0-.18-.18-.3-.39-.36-.61-.01-.05-.02-.1-.03-.15,0-.04-.01-.09-.01-.13-.16-.8-.55-1.56-1.17-2.17-.03-.03-.06-.06-.1-.09-.02-.01-.03-.02-.05-.04,0,0-.02-.02-.02-.03-.11-.13-.1-.32.02-.44.13-.13.34-.13.47,0h0s.09.09.13.14c.63.63,1.42,1.02,2.24,1.17.03,0,.06,0,.08.01.03,0,.06,0,.08.02h0Zm4.55-3.51c.54.54.54,1.41,0,1.95-.18.18-.39.29-.61.35-.05.01-.1.02-.15.03-.04,0-.09.01-.13.01-.8.16-1.56.55-2.19,1.16-.03.03-.06.06-.09.1-.01.02-.02.03-.04.05,0,0-.02.02-.03.02-.13.1-.32.1-.44-.02-.13-.13-.13-.34,0-.47h0s.09-.09.14-.13c.64-.63,1.03-1.41,1.18-2.23,0-.03,0-.06.01-.08,0-.03.01-.06.02-.08.06-.24.18-.47.37-.66.54-.54,1.42-.54,1.96,0h0Zm-5.87-3.99c.54-.54,1.42-.54,1.96,0,.18.18.3.39.36.61.01.05.02.1.03.15,0,.04.01.09.01.13.16.8.55,1.56,1.17,2.17.03.03.06.06.1.09.02.01.03.02.05.04,0,0,.02.02.02.03.11.13.1.32-.02.44-.13.13-.34.13-.47,0-.04-.05-.09-.09-.13-.14-.63-.63-1.42-1.02-2.24-1.17-.03,0-.06,0-.08-.01-.03,0-.06-.01-.08-.02-.24-.06-.48-.18-.67-.37-.54-.54-.54-1.41,0-1.95h0Zm-1.53,5.08s0,.06-.02.08c-.06.24-.18.48-.37.66-.54.54-1.42.54-1.96,0-.54-.54-.54-1.41,0-1.95.18-.18.39-.29.61-.35.05-.01.1-.02.15-.03.04,0,.09-.01.13-.01.8-.16,1.56-.55,2.19-1.16.03-.03.06-.06.09-.1.01-.02.02-.03.04-.05,0,0,.02-.02.03-.02.13-.1.32-.1.44.02.13.13.13.34,0,.47h0s-.09.09-.14.13c-.63.63-1.03,1.41-1.18,2.23,0,.03,0,.06-.01.08h0Zm2.97-9.6c.52,1.06.78,2.18.78,3.34,0,.19,0,.39-.02.58-.02-.02-.04-.05-.06-.07-.46-.46-1.17-.52-1.7-.2,0-.09.01-.19.01-.28,0-.91-.21-1.79-.62-2.63-.31-.63-.72-1.22-1.24-1.74-1.32-1.36-3.18-2.24-5.24-2.47-.37-.04-.74-.06-1.1-.06s-.69.02-1.05.06c-2.07.22-3.94,1.1-5.27,2.46-.51.53-.93,1.11-1.24,1.74-.42.84-.63,1.73-.63,2.65,0,1.18.36,2.35,1.05,3.38.29.44.64.85,1.04,1.22.14.13.29.26.44.39.1.08.2.15.29.22.19.14.3.36.3.59,0,.08-.02.16-.04.22-.04.16-.09.35-.14.54-.05.17-.09.34-.13.48-.03.12-.06.22-.08.29l-.07.27c0,.07.05.12.12.12.02,0,.04,0,.08-.03h0s.08-.05.08-.05l1.75-1.03s.04-.02.06-.03c.16-.08.31-.12.47-.12.1,0,.2.02.29.04.46.13.93.23,1.41.29.07,0,.15.02.22.03.35.04.7.06,1.05.06s.73-.02,1.1-.06c.62-.07,1.21-.2,1.78-.38-.05.52.2,1.05.69,1.33.08.05.17.08.25.11-.8.28-1.64.49-2.51.58-.44.05-.89.08-1.31.08s-.84-.02-1.26-.07c-.64-.07-1.25-.18-1.86-.36l-2.13,1.06-.72.36s-.03.02-.05.03c0,0,0,0-.01,0-.11.06-.24.1-.38.1-.4,0-.72-.3-.76-.69,0-.03,0-.05,0-.08,0-.02,0-.05,0-.07,0-.03,0-.06.01-.09,0-.03.02-.07.03-.1l.3-2.34h0c-.66-.59-1.38-1.41-1.82-2.07-.87-1.3-1.33-2.78-1.33-4.28,0-1.17.27-2.3.79-3.36.39-.79.91-1.52,1.55-2.17,1.62-1.65,3.88-2.71,6.38-2.98.43-.05.85-.07,1.26-.07.43,0,.87.03,1.31.08,2.48.28,4.73,1.35,6.34,3,.64.65,1.16,1.39,1.54,2.17h0Z"/>
    </clipPath>
  </defs>
  <g id="_图层_1-2" data-name="图层 1">
    <g>
      <g class="cls-5">
        <rect class="cls-6" x="-5" y="-5" width="310" height="50"/>
      </g>
      <path class="cls-1" d="m123.36,12.97c-1.86,2.08-4.19,3.81-6.99,5.19l.82,1.47c2.79-1.49,5.04-3.25,6.74-5.3,1.84,2.18,4.07,3.94,6.67,5.28l.83-1.47c-2.63-1.25-4.93-2.98-6.95-5.17h-1.12Zm.26,4.31v8.4h-2.69v-6.1h-1.5v6.1h-2.3v1.47h13.41v-1.47h-5.39v-3.52h4.24v-1.46h-4.24v-3.43h-1.52Zm14.85-4.19v12.58h-4.64v1.49h14.28v-1.49h-4.67v-12.58h-1.52v12.58h-1.92v-12.58h-1.52Zm7.96,2.98c-.67,2.88-1.47,5.27-2.37,7.12l1.36.48c.96-2.06,1.74-4.47,2.35-7.22l-1.34-.38h0Zm-10.98-.03l-1.3.42c.83,2.34,1.54,4.77,2.08,7.28l1.39-.35c-.64-2.75-1.36-5.2-2.18-7.35h0Zm26.71.75h1.28c-.05,1.84-.27,3.47-.66,4.9-.37-1.12-.67-2.38-.9-3.79.1-.35.18-.72.27-1.1h0Zm.03,6.58c-.56,1.26-1.3,2.29-2.22,3.07l.8,1.28c.83-.75,1.54-1.65,2.11-2.71.51,1.07,1.1,1.95,1.78,2.63l.86-1.3c-.77-.67-1.42-1.58-1.98-2.77.72-1.87,1.12-4.13,1.18-6.79h.56v-1.42h-2.83c.13-.7.22-1.44.32-2.21l-1.33-.22c-.29,2.9-.83,5.25-1.62,7.06v-1.09h-5.09v1.34h4.98c-.03.06-.05.11-.08.18l.83,1.06c.27-.48.53-1.02.77-1.62.26,1.28.58,2.45.96,3.51h0Zm-3.94,3.46c.86-.56,1.71-1.28,2.55-2.18l-.3-1.26c-.4.42-.8.78-1.18,1.14v-3.33h-4.11v2.1c-.02,1.47-.42,2.61-1.2,3.39l1.12.98c.96-.96,1.46-2.42,1.49-4.37v-.72h1.38v2.51c-.05.22-.16.38-.35.5l.62,1.25h0Zm-1.5-13.86v3.54h-.8v-2.67h-1.25v3.95h5.33v-3.95h-1.23v2.67h-.78v-3.54h-1.26Zm-3.71.02c-.54,1.44-1.39,2.69-2.53,3.78l.46,1.47c1.57-1.38,2.69-2.93,3.36-4.64l-1.3-.61h0Zm.08,4.29c-.54,1.52-1.39,2.85-2.55,4l.45,1.46c.43-.4.83-.8,1.2-1.22v6.26h1.42v-8.26c.29-.53.54-1.07.75-1.63l-1.28-.61h0Zm16.22,2.03v8.47h1.49v-10.85c.58-1.1,1.04-2.26,1.41-3.44l-1.42-.67c-.72,2.46-1.82,4.64-3.3,6.5l.5,1.63c.48-.54.91-1.09,1.33-1.63h0Zm2.61-4.4v1.42h10.52v-1.42h-4.32c-.18-.61-.43-1.26-.77-1.98l-1.46.4c.27.51.51,1.04.72,1.58h-4.69Zm1.46,2.4v1.36h7.7v-1.36h-7.7Zm0,2.26v1.38h7.7v-1.38h-7.7Zm8.04,2.38h-8.39v5.79h1.47v-.83h5.44v.83h1.47v-5.79h0Zm-6.91,3.54v-2.13h5.44v2.13h-5.44Zm13.02-5.81v4.08h9.16v-4.08h-9.16Zm7.64,2.74h-6.11v-1.41h6.11v1.41h0Zm-5.94,1.52l-1.44.53c.48.43.9.9,1.25,1.41h-3.87v1.44h13.8v-1.44h-3.62c.35-.46.69-.96.99-1.5l-1.42-.5c-.35.69-.75,1.36-1.2,2h-3.06c-.43-.75-.91-1.39-1.42-1.94h0Zm-2.53-8.82l-1.02.98c.77.54,1.42,1.06,1.97,1.55-.83.58-1.81,1.1-2.93,1.55l.91,1.2c1.52-.64,2.8-1.41,3.84-2.32v.51h5.86v-.61c.96.86,2.08,1.66,3.36,2.38l1.01-1.17c-.9-.45-1.7-.94-2.42-1.49.67-.51,1.25-1.09,1.76-1.73l-1.07-.94c-.48.64-1.07,1.23-1.78,1.78-.35-.32-.67-.66-.96-.99.67-.48,1.28-1.02,1.79-1.65l-1.07-.94c-.45.54-.96,1.06-1.55,1.52-.38-.54-.7-1.14-.96-1.76l-1.25.7c.56,1.28,1.34,2.45,2.37,3.52h-4.23c.67-.77,1.2-1.65,1.58-2.61v-1.14h-5.47v1.39h3.75c-.38.67-.86,1.3-1.47,1.9-.58-.54-1.25-1.1-2.02-1.65h0Zm17.12-1.63v1.36h7.91v1.26h-7.36v1.31h7.36v1.23h-9.51v1.39h6.05v1.81c-1.76,1.55-3.86,2.88-6.27,3.99l.61,1.41c2.18-1.14,4.07-2.4,5.67-3.81v2.34c0,.43-.14.66-.42.66-.53,0-1.09-.05-1.68-.11l.34,1.44h1.86c.93,0,1.41-.54,1.41-1.63v-2.77c1.41,1.54,3.25,2.85,5.55,3.94l.77-1.34c-1.6-.69-2.99-1.47-4.21-2.37,1.09-.59,2.05-1.42,2.9-2.48l-1.17-.98c-.77,1.14-1.7,2-2.77,2.61-.38-.34-.74-.69-1.07-1.06v-1.63h6.26v-1.39h-2.75v-5.17h-9.46Zm.32,6.9l-1.01.98c1.02.7,1.82,1.36,2.4,1.97l.99-.99c-.64-.64-1.44-1.3-2.38-1.95h0Z"/>
      <g class="cls-7">
        <rect class="cls-1" x="77" y="5" width="34" height="30"/>
      </g>
    </g>
  </g>
</svg>